<svg xmlns="http://www.w3.org/2000/svg" xmlns:xlink="http://www.w3.org/1999/xlink" viewBox="0 0 200 20"><defs><style>.cls-1{isolation:isolate;}.cls-2{fill:url(#linear-gradient);}.cls-3{fill:#b3e2f1;}.cls-4{fill:#fff;mix-blend-mode:soft-light;}</style><linearGradient id="linear-gradient" x1="100.02" y1="30.7" x2="99.97" y2="-16.14" gradientUnits="userSpaceOnUse"><stop offset="0.23" stop-color="#4d65af"/><stop offset="0.65" stop-color="#1e429b"/></linearGradient></defs><g class="cls-1"><g id="Layer_2" data-name="Layer 2"><g id="Layer_1-2" data-name="Layer 1"><rect class="cls-2" width="200" height="20" rx="8"/><path class="cls-3" d="M194.29,0H5.71A5.83,5.83,0,0,0,0,5.93v4.33c2.34,2,4.83,3.16,6.14,3.13,4.05-.08,4.52-4,9.27-4.65C21.17,7.9,23,14,28.56,13.42S34.5,6.89,40.09,5.53C47.24,3.79,50,13.06,59.21,14,69.46,15,71.8,4.26,83.1,4.66,92.39,5,94.45,12.37,103,11c7-1.16,7.65-6.4,14-6.43,6.89,0,8.48,6.54,15.49,6.2,5.39-.26,5.76-4.21,11.42-4.6,6.51-.46,8.3,4.66,14.88,5.28,9.48.9,12.11-7.78,20-5.58,3.59,1,8.22,7.82,13.13,7.6a8.24,8.24,0,0,0,4.3-1.68c1.61-1,2.87-2.22,3.87-2.7V5.93A5.83,5.83,0,0,0,194.29,0Z"/><path class="cls-4" d="M194.29,0H5.71A5.83,5.83,0,0,0,0,5.93V7.06c3,2.8,3.92,3.29,5.66,3.67,4.37.55,5-4.26,9.75-5,5.76-.84,7.59,5.3,13.15,4.68S34.5,3.92,40.09,2.56C47.24.83,50,10.1,59.21,11c10.25,1,12.59-9.73,23.89-9.34C92.39,2,94.45,9.4,103,8c7-1.16,7.65-6.39,14-6.43,6.89,0,8.48,6.54,15.49,6.2,5.39-.25,5.76-4.21,11.42-4.6,6.71-.47,7.72,4.61,14.88,5.29,9.48.89,12.11-7.78,20-5.58,5.75,1.6,7.16,7.37,13,7.87,1.85.16,4.76-1.9,4.76-1.9A24.2,24.2,0,0,0,200,5.93h0A5.83,5.83,0,0,0,194.29,0Z"/></g></g></g></svg>